<mxfile host="app.diagrams.net" modified="2023-12-11T14:44:50.149Z" agent="Mozilla/5.0 (Macintosh; Intel Mac OS X 10_15_7) AppleWebKit/537.36 (KHTML, like Gecko) Chrome/102.0.0.0 Safari/537.36" etag="ipjgwYoflLTMlBgq3sgC" version="22.1.7" type="github">
  <diagram name="第 1 页" id="PH-61uYJOj1cVVsJO1tb">
    <mxGraphModel dx="1703" dy="803" grid="1" gridSize="10" guides="1" tooltips="1" connect="1" arrows="1" fold="1" page="1" pageScale="1" pageWidth="1654" pageHeight="2336" math="0" shadow="0">
      <root>
        <mxCell id="0" />
        <mxCell id="1" parent="0" />
        <mxCell id="ldiHtbe_CO39kG_LrhSX-1" value="&lt;font style=&quot;font-size: 14px;&quot;&gt;等待来自&lt;br&gt;上层的调用0&lt;/font&gt;" style="ellipse;whiteSpace=wrap;html=1;aspect=fixed;" vertex="1" parent="1">
          <mxGeometry x="655" y="380" width="100" height="100" as="geometry" />
        </mxCell>
        <mxCell id="ldiHtbe_CO39kG_LrhSX-2" value="" style="curved=1;endArrow=classic;html=1;rounded=0;exitX=0.457;exitY=0.006;exitDx=0;exitDy=0;entryX=0.31;entryY=0.04;entryDx=0;entryDy=0;entryPerimeter=0;fontStyle=0;strokeWidth=2;exitPerimeter=0;" edge="1" parent="1" source="ldiHtbe_CO39kG_LrhSX-1" target="ldiHtbe_CO39kG_LrhSX-7">
          <mxGeometry width="50" height="50" relative="1" as="geometry">
            <mxPoint x="680" y="370" as="sourcePoint" />
            <mxPoint x="891.7999999999997" y="388.5999999999999" as="targetPoint" />
            <Array as="points">
              <mxPoint x="730" y="350" />
              <mxPoint x="780" y="340" />
              <mxPoint x="810" y="340" />
              <mxPoint x="850" y="350" />
              <mxPoint x="880" y="370" />
            </Array>
          </mxGeometry>
        </mxCell>
        <mxCell id="ldiHtbe_CO39kG_LrhSX-3" value="&lt;font style=&quot;font-size: 12px;&quot;&gt;rdt_send(data)&lt;br&gt;-----------------------&lt;br&gt;sndpkt=make_pkt(0,data,checksum)&lt;br&gt;udt_send(sndpkt)&lt;/font&gt;" style="text;html=1;align=left;verticalAlign=middle;resizable=0;points=[];autosize=1;strokeColor=none;fillColor=none;" vertex="1" parent="1">
          <mxGeometry x="730" y="270" width="220" height="70" as="geometry" />
        </mxCell>
        <mxCell id="ldiHtbe_CO39kG_LrhSX-4" value="rdt_rcv(rcvpkt) &amp;amp;&amp;amp; (corrunpt(rcvpkt) &lt;br&gt;|| isNAK(rcvpkt))&lt;br&gt;---------------------------------------&lt;br&gt;udt_send(sndpkt)" style="text;html=1;align=left;verticalAlign=middle;resizable=0;points=[];autosize=1;strokeColor=none;fillColor=none;" vertex="1" parent="1">
          <mxGeometry x="990" y="340" width="210" height="70" as="geometry" />
        </mxCell>
        <mxCell id="ldiHtbe_CO39kG_LrhSX-5" value="发送端" style="text;html=1;align=center;verticalAlign=middle;resizable=0;points=[];autosize=1;strokeColor=none;fillColor=none;fontSize=11;fontFamily=Helvetica;fontColor=default;" vertex="1" parent="1">
          <mxGeometry x="767" y="780" width="60" height="30" as="geometry" />
        </mxCell>
        <mxCell id="ldiHtbe_CO39kG_LrhSX-6" value="接收端" style="text;html=1;align=center;verticalAlign=middle;resizable=0;points=[];autosize=1;strokeColor=none;fillColor=none;fontSize=11;fontFamily=Helvetica;fontColor=default;" vertex="1" parent="1">
          <mxGeometry x="640" y="1010" width="60" height="30" as="geometry" />
        </mxCell>
        <mxCell id="ldiHtbe_CO39kG_LrhSX-7" value="&lt;span style=&quot;font-size: 14px;&quot;&gt;等待ACK&lt;br&gt;或NAK0&lt;/span&gt;" style="ellipse;whiteSpace=wrap;html=1;aspect=fixed;" vertex="1" parent="1">
          <mxGeometry x="860" y="380" width="100" height="100" as="geometry" />
        </mxCell>
        <mxCell id="ldiHtbe_CO39kG_LrhSX-8" value="" style="curved=1;endArrow=classic;html=1;rounded=0;entryX=0.961;entryY=0.669;entryDx=0;entryDy=0;entryPerimeter=0;fontStyle=0;strokeWidth=2;exitX=0.8;exitY=0.1;exitDx=0;exitDy=0;exitPerimeter=0;" edge="1" parent="1" source="ldiHtbe_CO39kG_LrhSX-7">
          <mxGeometry width="50" height="50" relative="1" as="geometry">
            <mxPoint x="940" y="380" as="sourcePoint" />
            <mxPoint x="956.0999999999999" y="413.89999999999986" as="targetPoint" />
            <Array as="points">
              <mxPoint x="950" y="360" />
              <mxPoint x="980" y="370" />
              <mxPoint x="990" y="410" />
              <mxPoint x="980" y="420" />
            </Array>
          </mxGeometry>
        </mxCell>
        <mxCell id="ldiHtbe_CO39kG_LrhSX-16" value="等待ACK&lt;br style=&quot;border-color: var(--border-color); font-size: 14px;&quot;&gt;&lt;span style=&quot;font-size: 14px;&quot;&gt;或NAK1&lt;/span&gt;" style="ellipse;whiteSpace=wrap;html=1;aspect=fixed;" vertex="1" parent="1">
          <mxGeometry x="652" y="543" width="100" height="100" as="geometry" />
        </mxCell>
        <mxCell id="ldiHtbe_CO39kG_LrhSX-17" value="&lt;span style=&quot;font-size: 14px;&quot;&gt;等待来自上层的调用1&lt;/span&gt;" style="ellipse;whiteSpace=wrap;html=1;aspect=fixed;" vertex="1" parent="1">
          <mxGeometry x="857" y="543" width="100" height="100" as="geometry" />
        </mxCell>
        <mxCell id="ldiHtbe_CO39kG_LrhSX-18" value="" style="curved=1;endArrow=classic;html=1;rounded=0;entryX=0.218;entryY=0.086;entryDx=0;entryDy=0;entryPerimeter=0;fontStyle=0;strokeWidth=2;exitX=0.266;exitY=0.97;exitDx=0;exitDy=0;exitPerimeter=0;" edge="1" parent="1" source="ldiHtbe_CO39kG_LrhSX-17">
          <mxGeometry width="50" height="50" relative="1" as="geometry">
            <mxPoint x="887" y="634" as="sourcePoint" />
            <mxPoint x="707" y="641.5999999999995" as="targetPoint" />
            <Array as="points">
              <mxPoint x="882" y="641.5999999999995" />
              <mxPoint x="852" y="661.5999999999995" />
              <mxPoint x="812" y="671.5999999999995" />
              <mxPoint x="772" y="671.5999999999995" />
              <mxPoint x="732" y="661.5999999999995" />
            </Array>
          </mxGeometry>
        </mxCell>
        <mxCell id="ldiHtbe_CO39kG_LrhSX-22" value="" style="curved=1;endArrow=classic;html=1;rounded=0;exitX=1;exitY=1;exitDx=0;exitDy=0;entryX=0.933;entryY=0.26;entryDx=0;entryDy=0;entryPerimeter=0;fontStyle=0;strokeWidth=2;" edge="1" parent="1" target="ldiHtbe_CO39kG_LrhSX-17">
          <mxGeometry width="50" height="50" relative="1" as="geometry">
            <mxPoint x="947.3553390593274" y="460.6753390593272" as="sourcePoint" />
            <mxPoint x="954.2999999999997" y="569.32" as="targetPoint" />
            <Array as="points">
              <mxPoint x="981" y="526.32" />
            </Array>
          </mxGeometry>
        </mxCell>
        <mxCell id="ldiHtbe_CO39kG_LrhSX-25" value="" style="curved=1;endArrow=classic;html=1;rounded=0;fontStyle=0;strokeWidth=2;entryX=0;entryY=1;entryDx=0;entryDy=0;" edge="1" parent="1" target="ldiHtbe_CO39kG_LrhSX-1">
          <mxGeometry width="50" height="50" relative="1" as="geometry">
            <mxPoint x="663" y="560" as="sourcePoint" />
            <mxPoint x="669.5999999999999" y="460" as="targetPoint" />
            <Array as="points">
              <mxPoint x="640" y="530" />
            </Array>
          </mxGeometry>
        </mxCell>
        <mxCell id="ldiHtbe_CO39kG_LrhSX-26" value="rdt_rcv(rcvpkt) &amp;amp;&amp;amp; &lt;br&gt;(notcorrunpt(rcvpkt) &amp;amp;&amp;amp;&lt;br&gt;isACK(rcvpkt))&lt;br&gt;---------------------------------------" style="text;html=1;align=left;verticalAlign=middle;resizable=0;points=[];autosize=1;strokeColor=none;fillColor=none;" vertex="1" parent="1">
          <mxGeometry x="981" y="470" width="180" height="70" as="geometry" />
        </mxCell>
        <mxCell id="ldiHtbe_CO39kG_LrhSX-29" value="&lt;font style=&quot;font-size: 12px;&quot;&gt;rdt_send(data)&lt;br&gt;-----------------------&lt;br&gt;sndpkt=make_pkt(1,data,checksum)&lt;br&gt;udt_send(sndpkt)&lt;/font&gt;" style="text;html=1;align=left;verticalAlign=middle;resizable=0;points=[];autosize=1;strokeColor=none;fillColor=none;" vertex="1" parent="1">
          <mxGeometry x="712" y="680" width="220" height="70" as="geometry" />
        </mxCell>
        <mxCell id="ldiHtbe_CO39kG_LrhSX-31" value="" style="curved=1;endArrow=classic;html=1;rounded=0;fontStyle=0;strokeWidth=2;entryX=0.016;entryY=0.664;entryDx=0;entryDy=0;entryPerimeter=0;" edge="1" parent="1">
          <mxGeometry width="50" height="50" relative="1" as="geometry">
            <mxPoint x="670" y="630" as="sourcePoint" />
            <mxPoint x="653.5999999999999" y="589.3999999999999" as="targetPoint" />
            <Array as="points">
              <mxPoint x="669.74" y="650" />
              <mxPoint x="650" y="660" />
              <mxPoint x="630" y="650" />
              <mxPoint x="610" y="620" />
              <mxPoint x="620" y="580" />
            </Array>
          </mxGeometry>
        </mxCell>
        <mxCell id="ldiHtbe_CO39kG_LrhSX-32" value="rdt_rcv(rcvpkt) &amp;amp;&amp;amp; (corrunpt(rcvpkt) &lt;br&gt;|| isNAK(rcvpkt))&lt;br&gt;---------------------------------------&lt;br&gt;udt_send(sndpkt)" style="text;html=1;align=left;verticalAlign=middle;resizable=0;points=[];autosize=1;strokeColor=none;fillColor=none;" vertex="1" parent="1">
          <mxGeometry x="442" y="643" width="210" height="70" as="geometry" />
        </mxCell>
        <mxCell id="ldiHtbe_CO39kG_LrhSX-33" value="rdt_rcv(rcvpkt) &amp;amp;&amp;amp; &lt;br&gt;(notcorrunpt(rcvpkt) &amp;amp;&amp;amp;&lt;br&gt;isACK(rcvpkt))&lt;br&gt;----------------------------------" style="text;html=1;align=left;verticalAlign=middle;resizable=0;points=[];autosize=1;strokeColor=none;fillColor=none;" vertex="1" parent="1">
          <mxGeometry x="520" y="340" width="160" height="70" as="geometry" />
        </mxCell>
        <mxCell id="ldiHtbe_CO39kG_LrhSX-34" value="&lt;font style=&quot;font-size: 14px;&quot;&gt;等待来自&lt;br&gt;上层的调用0&lt;/font&gt;" style="ellipse;whiteSpace=wrap;html=1;aspect=fixed;" vertex="1" parent="1">
          <mxGeometry x="610" y="910" width="100" height="100" as="geometry" />
        </mxCell>
        <mxCell id="ldiHtbe_CO39kG_LrhSX-35" value="" style="curved=1;endArrow=classic;html=1;rounded=0;exitX=0.457;exitY=0.006;exitDx=0;exitDy=0;entryX=0.31;entryY=0.04;entryDx=0;entryDy=0;entryPerimeter=0;fontStyle=0;strokeWidth=2;exitPerimeter=0;" edge="1" parent="1" source="ldiHtbe_CO39kG_LrhSX-34" target="ldiHtbe_CO39kG_LrhSX-36">
          <mxGeometry width="50" height="50" relative="1" as="geometry">
            <mxPoint x="635" y="900" as="sourcePoint" />
            <mxPoint x="846.7999999999997" y="918.5999999999999" as="targetPoint" />
            <Array as="points">
              <mxPoint x="685" y="880" />
              <mxPoint x="735" y="870" />
              <mxPoint x="765" y="870" />
              <mxPoint x="805" y="880" />
              <mxPoint x="835" y="900" />
            </Array>
          </mxGeometry>
        </mxCell>
        <mxCell id="ldiHtbe_CO39kG_LrhSX-36" value="&lt;span style=&quot;font-size: 14px;&quot;&gt;等待ACK&lt;br&gt;或NAK0&lt;/span&gt;" style="ellipse;whiteSpace=wrap;html=1;aspect=fixed;" vertex="1" parent="1">
          <mxGeometry x="815" y="910" width="100" height="100" as="geometry" />
        </mxCell>
      </root>
    </mxGraphModel>
  </diagram>
</mxfile>
